<svg width="489" height="24" viewBox="0 0 489 24" fill="none" xmlns="http://www.w3.org/2000/svg">
<path d="M0 21V0H6V18H18V21H0ZM24 21V18H21V9H24V6H39V9H42V18H39V21H24ZM27 18H36V9H27V18ZM48 21V18H45V15H48V12H60V9H48V6H63V9H66V21H48ZM51 18H60V15H51V18ZM72 21V18H69V9H72V6H84V0H90V21H72ZM75 18H84V9H75V18ZM102 3V0H108V3H102ZM96 21V18H102V9H99V6H108V18H114V21H96ZM117 21V6H135V9H138V21H132V9H123V21H117ZM144 24V21H156V18H144V15H141V9H144V6H162V21H159V24H144ZM147 15H156V9H147V15ZM198 21V18H195V15H192V6H198V15H204V6H210V15H207V18H204V21H198ZM222 3V0H228V3H222ZM216 21V18H222V9H219V6H228V18H234V21H216ZM240 21V18H237V9H240V6H252V0H258V21H240ZM243 18H252V9H243V18ZM264 21V18H261V9H264V6H279V9H282V15H267V18H279V21H264ZM267 12H276V9H267V12ZM288 21V18H285V9H288V6H303V9H306V18H303V21H288ZM291 18H300V9H291V18ZM312 24V21H324V18H312V15H309V9H312V6H330V21H327V24H312ZM315 15H324V9H315V15ZM336 21V18H333V15H336V12H348V9H336V6H351V9H354V21H336ZM339 18H348V15H339V18ZM357 21V6H375V9H378V21H372V9H369V21H363V9H360V21H357ZM384 21V18H381V9H384V6H399V9H402V15H387V18H399V21H384ZM387 12H396V9H387V12ZM405 21V18H420V15H408V12H405V9H408V6H423V9H411V12H423V15H426V18H423V21H405ZM435 21V15H441V21H435ZM459 21V15H465V21H459ZM483 21V15H489V21H483Z" fill="white"/>
</svg>
