<svg width="326" height="16" viewBox="0 0 326 16" fill="none" xmlns="http://www.w3.org/2000/svg">
<path d="M0 14V0H4V12H12V14H0ZM16 14V12H14V6H16V4H26V6H28V12H26V14H16ZM18 12H24V6H18V12ZM32 14V12H30V10H32V8H40V6H32V4H42V6H44V14H32ZM34 12H40V10H34V12ZM48 14V12H46V6H48V4H56V0H60V14H48ZM50 12H56V6H50V12ZM68 2V0H72V2H68ZM64 14V12H68V6H66V4H72V12H76V14H64ZM78 14V4H90V6H92V14H88V6H82V14H78ZM96 16V14H104V12H96V10H94V6H96V4H108V14H106V16H96ZM98 10H104V6H98V10ZM132 14V12H130V10H128V4H132V10H136V4H140V10H138V12H136V14H132ZM148 2V0H152V2H148ZM144 14V12H148V6H146V4H152V12H156V14H144ZM160 14V12H158V6H160V4H168V0H172V14H160ZM162 12H168V6H162V12ZM176 14V12H174V6H176V4H186V6H188V10H178V12H186V14H176ZM178 8H184V6H178V8ZM192 14V12H190V6H192V4H202V6H204V12H202V14H192ZM194 12H200V6H194V12ZM208 16V14H216V12H208V10H206V6H208V4H220V14H218V16H208ZM210 10H216V6H210V10ZM224 14V12H222V10H224V8H232V6H224V4H234V6H236V14H224ZM226 12H232V10H226V12ZM238 14V4H250V6H252V14H248V6H246V14H242V6H240V14H238ZM256 14V12H254V6H256V4H266V6H268V10H258V12H266V14H256ZM258 8H264V6H258V8ZM270 14V12H280V10H272V8H270V6H272V4H282V6H274V8H282V10H284V12H282V14H270ZM290 14V10H294V14H290ZM306 14V10H310V14H306ZM322 14V10H326V14H322Z" fill="white"/>
</svg>
